<?xml version="1.0" encoding="UTF-8" standalone="no"?>
<!-- Generator: Adobe Illustrator 19.0.0, SVG Export Plug-In . SVG Version: 6.00 Build 0)  -->

<svg
   version="1.1"
   id="Layer_1"
   x="0px"
   y="0px"
   viewBox="0 0 496.43079 158.38242"
   xml:space="preserve"
   sodipodi:docname="logo_text.svg"
   inkscape:version="1.4 (86a8ad7, 2024-10-11)"
   inkscape:export-filename="/Users/Emmanuel/Downloads/pear-svgrepo-com.png"
   inkscape:export-xdpi="1000"
   inkscape:export-ydpi="1000"
   width="496.43079"
   height="158.38243"
   xmlns:inkscape="http://www.inkscape.org/namespaces/inkscape"
   xmlns:sodipodi="http://sodipodi.sourceforge.net/DTD/sodipodi-0.dtd"
   xmlns="http://www.w3.org/2000/svg"
   xmlns:svg="http://www.w3.org/2000/svg"
   xmlns:rdf="http://www.w3.org/1999/02/22-rdf-syntax-ns#"
   xmlns:cc="http://creativecommons.org/ns#"
   xmlns:dc="http://purl.org/dc/elements/1.1/"><metadata
     id="metadata43"><rdf:RDF><cc:Work
         rdf:about=""><dc:format>image/svg+xml</dc:format><dc:type
           rdf:resource="http://purl.org/dc/dcmitype/StillImage" /><dc:title /></cc:Work></rdf:RDF></metadata><defs
     id="defs41" /><sodipodi:namedview
     pagecolor="#ffffff"
     bordercolor="#666666"
     borderopacity="1"
     objecttolerance="10"
     gridtolerance="10"
     guidetolerance="10"
     inkscape:pageopacity="0"
     inkscape:pageshadow="2"
     inkscape:window-width="1928"
     inkscape:window-height="1036"
     id="namedview39"
     showgrid="false"
     inkscape:zoom="1.84375"
     inkscape:cx="237.55932"
     inkscape:cy="54.237288"
     inkscape:window-x="474"
     inkscape:window-y="502"
     inkscape:window-maximized="0"
     inkscape:current-layer="g869"
     fit-margin-top="5"
     fit-margin-left="0"
     fit-margin-right="0"
     fit-margin-bottom="15"
     inkscape:showpageshadow="2"
     inkscape:pagecheckerboard="0"
     inkscape:deskcolor="#d1d1d1" /><g
     id="g8"
     transform="translate(-11.932184,-363.73621)" /><g
     id="g10"
     transform="translate(-11.932184,-363.73621)" /><g
     id="g12"
     transform="translate(-11.932184,-363.73621)" /><g
     id="g14"
     transform="translate(-11.932184,-363.73621)" /><g
     id="g16"
     transform="translate(-11.932184,-363.73621)" /><g
     id="g18"
     transform="translate(-11.932184,-363.73621)" /><g
     id="g20"
     transform="translate(-11.932184,-363.73621)" /><g
     id="g22"
     transform="translate(-11.932184,-363.73621)" /><g
     id="g24"
     transform="translate(-11.932184,-363.73621)" /><g
     id="g26"
     transform="translate(-11.932184,-363.73621)" /><g
     id="g28"
     transform="translate(-11.932184,-363.73621)" /><g
     id="g30"
     transform="translate(-11.932184,-363.73621)" /><g
     id="g32"
     transform="translate(-11.932184,-363.73621)" /><g
     id="g34"
     transform="translate(-11.932184,-363.73621)" /><g
     id="g36"
     transform="translate(-11.932184,-363.73621)" /><g
     id="g869"
     inkscape:export-xdpi="1000"
     inkscape:export-ydpi="1000"
     transform="matrix(0.17132534,0,0,0.17144924,204.35601,5)"
     style="stroke-width:5.83473873"><path
   inkscape:connector-curvature="0"
   id="path861"
   d="m 156.20339,9.2203385 8.67797,47.7288135 37.42372,39.59322 L 263.05085,116.0678 256.54237,68.338983 226.71186,32.542372 183.32203,11.38983 Z"
   style="fill:#008000;stroke:#000000;stroke-width:5.83473873px;stroke-linecap:butt;stroke-linejoin:miter;stroke-opacity:1" /><path
   inkscape:connector-curvature="0"
   id="path859"
   d="m 257.62712,141.01695 -36.88136,7.59322 -25.49152,24.40678 -6.50848,36.88135 -15.72881,52.61017 -33.08475,36.88136 -23.32203,48.81356 -7.05085,54.23729 21.15254,49.35593 33.62712,34.71186 71.05085,17.35594 74.84746,-6.50848 62.37288,-33.08474 28.74576,-61.28814 -3.79661,-57.49152 -33.08474,-58.0339 -33.62712,-37.42373 -5.9661,-62.91526 -32,-40.13559 z"
   style="fill:#ffcc00;stroke:#000000;stroke-width:5.83473873px;stroke-linecap:butt;stroke-linejoin:miter;stroke-opacity:1" /><path
   inkscape:connector-curvature="0"
   id="path2"
   d="m 362.155,274.844 c -17.053,-16.749 -26.446,-38.647 -26.446,-61.658 0,-39.698 -29.271,-73.592 -67.015,-79.858 v -1.576 c 0,-23.55 18.899,-42.709 42.131,-42.709 4.679,0 8.473,-3.794 8.473,-8.473 0,-4.679 -3.794,-8.473 -8.473,-8.473 -15.924,0 -30.819,6.221 -41.94,17.52 -0.198,0.201 -0.382,0.412 -0.576,0.615 C 257.527,38.769 211.797,0 157.177,0 c -4.679,0 -8.473,3.794 -8.473,8.473 0,59.358 45.789,108.218 103.899,113.127 -0.556,3.321 -0.855,6.712 -0.855,10.152 v 0.642 c -19.232,0.994 -37.219,8.76 -51.266,22.317 -15.62,15.075 -24.222,35.238 -24.222,56.779 v 0.417 c 0,23.819 -9.503,45.972 -26.759,62.378 -30.069,28.59 -46.628,67.769 -46.628,110.321 0,40.326 15.789,73.573 45.66,96.15 27.044,20.44 64.135,31.244 107.264,31.244 43.156,0 80.313,-10.801 107.455,-31.235 30.012,-22.596 45.876,-55.848 45.876,-96.16 -10e-4,-40.436 -17.122,-80.442 -46.973,-109.761 z M 166.055,17.35 c 46.198,4.226 83.087,41.116 87.313,87.313 -46.197,-4.226 -83.087,-41.116 -87.313,-87.313 z m 89.741,477.704 c -65.737,0 -135.977,-29.015 -135.977,-110.45 0,-37.863 14.689,-72.681 41.359,-98.04 20.653,-19.636 32.028,-46.15 32.028,-74.659 v -0.417 c 0,-16.898 6.764,-32.733 19.044,-44.585 11.875,-11.46 27.318,-17.694 43.707,-17.694 0.767,0 1.536,0.014 2.307,0.041 33.36,1.186 60.5,29.867 60.5,63.934 0,27.596 11.193,53.786 31.517,73.747 26.628,26.153 41.9,61.753 41.9,97.672 0,81.436 -70.452,110.451 -136.385,110.451 z"
   style="stroke-width:5.83473873" /><text
   id="text855"
   y="638.57886"
   x="249.45752"
   style="font-style:normal;font-weight:normal;font-size:21.3333px;line-height:1.25;font-family:sans-serif;letter-spacing:0px;word-spacing:0px;fill:#000000;fill-opacity:1;stroke:none;stroke-width:5.83474"
   xml:space="preserve"><tspan
     style="font-style:normal;font-variant:normal;font-weight:normal;font-stretch:normal;font-size:133.333px;font-family:sans-serif;-inkscape-font-specification:sans-serif;text-align:center;text-anchor:middle;stroke-width:5.83474"
     y="638.57886"
     x="249.45752"
     id="tspan853"
     sodipodi:role="line">PEARS</tspan><tspan
     style="font-style:normal;font-variant:normal;font-weight:normal;font-stretch:normal;font-size:133.333px;font-family:sans-serif;-inkscape-font-specification:sans-serif;text-align:center;text-anchor:middle;stroke-width:5.83474"
     id="tspan857"
     y="805.24512"
     x="266.79089"
     sodipodi:role="line"><tspan
   style="font-weight:bold"
   id="tspan1">Pe</tspan>rovskite C<tspan
   style="font-weight:bold"
   id="tspan2">a</tspan>rrier <tspan
   style="font-weight:bold"
   id="tspan17">R</tspan>ecombination <tspan
   style="font-weight:bold"
   id="tspan18">S</tspan>imulator </tspan></text>
</g></svg>
