<?xml version="1.0" encoding="UTF-8" standalone="no"?>
<!-- Generator: Adobe Illustrator 19.0.0, SVG Export Plug-In . SVG Version: 6.00 Build 0)  -->

<svg
   version="1.1"
   id="Layer_1"
   x="0px"
   y="0px"
   viewBox="0 10 499.72537 160"
   xml:space="preserve"
   sodipodi:docname="logo_text.svg"
   inkscape:version="1.2.1 (9c6d41e, 2022-07-14)"
   inkscape:export-filename="../../../../../Downloads/pear-svgrepo-com.png"
   inkscape:export-xdpi="1000"
   inkscape:export-ydpi="1000"
   width="499.72537"
   height="160"
   xmlns:inkscape="http://www.inkscape.org/namespaces/inkscape"
   xmlns:sodipodi="http://sodipodi.sourceforge.net/DTD/sodipodi-0.dtd"
   xmlns="http://www.w3.org/2000/svg"
   xmlns:svg="http://www.w3.org/2000/svg"
   xmlns:rdf="http://www.w3.org/1999/02/22-rdf-syntax-ns#"
   xmlns:cc="http://creativecommons.org/ns#"
   xmlns:dc="http://purl.org/dc/elements/1.1/"><metadata
     id="metadata43"><rdf:RDF><cc:Work
         rdf:about=""><dc:format>image/svg+xml</dc:format><dc:type
           rdf:resource="http://purl.org/dc/dcmitype/StillImage" /></cc:Work></rdf:RDF></metadata><defs
     id="defs41" /><sodipodi:namedview
     pagecolor="#ffffff"
     bordercolor="#666666"
     borderopacity="1"
     objecttolerance="10"
     gridtolerance="10"
     guidetolerance="10"
     inkscape:pageopacity="0"
     inkscape:pageshadow="2"
     inkscape:window-width="2304"
     inkscape:window-height="1243"
     id="namedview39"
     showgrid="false"
     inkscape:zoom="2.3356386"
     inkscape:cx="334.598"
     inkscape:cy="175.75493"
     inkscape:window-x="2304"
     inkscape:window-y="25"
     inkscape:window-maximized="0"
     inkscape:current-layer="Layer_1"
     fit-margin-top="5"
     fit-margin-left="0"
     fit-margin-right="0"
     fit-margin-bottom="15"
     inkscape:showpageshadow="2"
     inkscape:pagecheckerboard="false"
     inkscape:deskcolor="#d1d1d1"
     showborder="false" /><g
     id="g8"
     transform="translate(-15.977465,-361.70097)" /><g
     id="g10"
     transform="translate(-15.977465,-361.70097)" /><g
     id="g12"
     transform="translate(-15.977465,-361.70097)" /><g
     id="g14"
     transform="translate(-15.977465,-361.70097)" /><g
     id="g16"
     transform="translate(-15.977465,-361.70097)" /><g
     id="g18"
     transform="translate(-15.977465,-361.70097)" /><g
     id="g20"
     transform="translate(-15.977465,-361.70097)" /><g
     id="g22"
     transform="translate(-15.977465,-361.70097)" /><g
     id="g24"
     transform="translate(-15.977465,-361.70097)" /><g
     id="g26"
     transform="translate(-15.977465,-361.70097)" /><g
     id="g28"
     transform="translate(-15.977465,-361.70097)" /><g
     id="g30"
     transform="translate(-15.977465,-361.70097)" /><g
     id="g32"
     transform="translate(-15.977465,-361.70097)" /><g
     id="g34"
     transform="translate(-15.977465,-361.70097)" /><g
     id="g36"
     transform="translate(-15.977465,-361.70097)" /><g
     id="g869"
     inkscape:export-xdpi="1000"
     inkscape:export-ydpi="1000"
     transform="matrix(0.17132534,0,0,0.17144924,200.31074,7.0352366)"
     style="stroke-width:5.83474">
<path
   inkscape:connector-curvature="0"
   id="path861"
   d="m 190.81314,26.512706 8.67797,47.728814 37.42372,39.59322 60.74577,19.52543 L 291.15212,85.631351 261.32161,49.83474 217.93178,28.682198 Z"
   style="fill:#008000;stroke:#000000;stroke-width:5.83474px;stroke-linecap:butt;stroke-linejoin:miter;stroke-opacity:1" /><path
   inkscape:connector-curvature="0"
   id="path859"
   d="m 292.23687,158.30932 -36.88136,7.59322 -25.49152,24.40678 -6.50848,36.88135 -15.72881,52.61017 -33.08475,36.88136 -23.32203,48.81356 -7.05085,54.23729 21.15254,49.35593 33.62712,34.71186 71.05085,17.35594 74.84746,-6.50848 62.37288,-33.08474 28.74576,-61.28814 -3.79661,-57.49152 -33.08474,-58.0339 -33.62712,-37.42373 -5.9661,-62.91526 -32,-40.13559 z"
   style="fill:#ffcc00;stroke:#000000;stroke-width:5.83474px;stroke-linecap:butt;stroke-linejoin:miter;stroke-opacity:1" /><path
   inkscape:connector-curvature="0"
   id="path2"
   d="m 396.76475,292.13637 c -17.053,-16.749 -26.446,-38.647 -26.446,-61.658 0,-39.698 -29.271,-73.592 -67.015,-79.858 v -1.576 c 0,-23.55 18.899,-42.709 42.131,-42.709 4.679,0 8.473,-3.794 8.473,-8.473002 0,-4.679 -3.794,-8.473 -8.473,-8.473 -15.924,0 -30.819,6.221 -41.94,17.520002 -0.198,0.201 -0.382,0.412 -0.576,0.615 -10.782,-51.463002 -56.512,-90.232002 -111.132,-90.232002 -4.679,0 -8.473,3.794 -8.473,8.473 0,59.358 45.789,108.218002 103.899,113.127002 -0.556,3.321 -0.855,6.712 -0.855,10.152 v 0.642 c -19.232,0.994 -37.219,8.76 -51.266,22.317 -15.62,15.075 -24.222,35.238 -24.222,56.779 v 0.417 c 0,23.819 -9.503,45.972 -26.759,62.378 -30.069,28.59 -46.628,67.769 -46.628,110.321 0,40.326 15.789,73.573 45.66,96.15 27.044,20.44 64.135,31.244 107.264,31.244 43.156,0 80.313,-10.801 107.455,-31.235 30.012,-22.596 45.876,-55.848 45.876,-96.16 -0.001,-40.436 -17.122,-80.442 -46.973,-109.761 z m -196.1,-257.494002 c 46.198,4.226 83.087,41.116 87.313,87.313002 -46.197,-4.226 -83.087,-41.116002 -87.313,-87.313002 z m 89.741,477.704002 c -65.737,0 -135.977,-29.015 -135.977,-110.45 0,-37.863 14.689,-72.681 41.359,-98.04 20.653,-19.636 32.028,-46.15 32.028,-74.659 v -0.417 c 0,-16.898 6.764,-32.733 19.044,-44.585 11.875,-11.46 27.318,-17.694 43.707,-17.694 0.767,0 1.536,0.014 2.307,0.041 33.36,1.186 60.5,29.867 60.5,63.934 0,27.596 11.193,53.786 31.517,73.747 26.628,26.153 41.9,61.753 41.9,97.672 0,81.436 -70.452,110.451 -136.385,110.451 z"
   style="stroke-width:5.83474" /><text
   id="text855"
   y="655.87122"
   x="284.06726"
   style="font-style:normal;font-weight:normal;font-size:21.3333px;line-height:1.25;font-family:sans-serif;letter-spacing:0px;word-spacing:0px;fill:#000000;fill-opacity:1;stroke:none;stroke-width:5.83474"
   xml:space="preserve"><tspan
     style="font-style:normal;font-variant:normal;font-weight:normal;font-stretch:normal;font-size:133.333px;font-family:sans-serif;-inkscape-font-specification:sans-serif;text-align:center;text-anchor:middle;stroke-width:5.83474"
     y="655.87122"
     x="284.06726"
     id="tspan853"
     sodipodi:role="line">PEARS</tspan><tspan
     style="font-style:normal;font-variant:normal;font-weight:normal;font-stretch:normal;font-size:133.333px;font-family:sans-serif;-inkscape-font-specification:sans-serif;text-align:center;text-anchor:middle;stroke-width:5.83474"
     id="tspan857"
     y="822.53748"
     x="307.50467"
     sodipodi:role="line">Perovskite Carrier Recombination Simulator </tspan></text><path
   style="fill:#000000;stroke:#000000;stroke-width:7.31313;stroke-linejoin:round;stroke-dasharray:none;stroke-opacity:1"
   d="m -908.27192,851.7382 h 70.0422"
   id="path3666" /><path
   style="fill:#000000;stroke:#000000;stroke-width:7.31312;stroke-linejoin:round;stroke-dasharray:none;stroke-opacity:1"
   d="m -992.34166,851.75393 h 70.0422"
   id="path3668" /><path
   style="fill:#000000;stroke:#000000;stroke-width:7.31313;stroke-linejoin:round;stroke-dasharray:none;stroke-opacity:1"
   d="m -241.38604,851.75393 h 70.04218"
   id="path3670" /><path
   style="fill:#000000;stroke:#000000;stroke-width:7.61175;stroke-linejoin:round;stroke-dasharray:none;stroke-opacity:1"
   d="m 116.48639,851.75393 h 75.87905"
   id="path3774" /><path
   style="fill:#000000;stroke:#000000;stroke-width:7.31313;stroke-linejoin:round;stroke-dasharray:none;stroke-opacity:1"
   d="m 1050.8108,851.75393 h 70.0422"
   id="path3776" /></g><rect
     style="fill:#ffffff;fill-opacity:0;stroke:none;stroke-width:1.51181;stroke-linejoin:round;stroke-opacity:1"
     id="rect845"
     width="467.53812"
     height="13.700742"
     x="1.2844453"
     y="155.57047" /></svg>
