<?xml version="1.0" encoding="UTF-8" standalone="no"?>
<!-- Generator: Adobe Illustrator 19.0.0, SVG Export Plug-In . SVG Version: 6.00 Build 0)  -->

<svg
   xmlns:dc="http://purl.org/dc/elements/1.1/"
   xmlns:cc="http://creativecommons.org/ns#"
   xmlns:rdf="http://www.w3.org/1999/02/22-rdf-syntax-ns#"
   xmlns:svg="http://www.w3.org/2000/svg"
   xmlns="http://www.w3.org/2000/svg"
   xmlns:sodipodi="http://sodipodi.sourceforge.net/DTD/sodipodi-0.dtd"
   xmlns:inkscape="http://www.inkscape.org/namespaces/inkscape"
   version="1.1"
   id="Layer_1"
   x="0px"
   y="0px"
   viewBox="0 0 52.469239 97.781994"
   xml:space="preserve"
   sodipodi:docname="logo copie.svg"
   inkscape:version="0.92.2 5c3e80d, 2017-08-06"
   inkscape:export-filename="/Users/Emmanuel/Downloads/pear-svgrepo-com.png"
   inkscape:export-xdpi="1000"
   inkscape:export-ydpi="1000"
   width="52.469238"
   height="97.782005"><metadata
     id="metadata43"><rdf:RDF><cc:Work
         rdf:about=""><dc:format>image/svg+xml</dc:format><dc:type
           rdf:resource="http://purl.org/dc/dcmitype/StillImage" /><dc:title></dc:title></cc:Work></rdf:RDF></metadata><defs
     id="defs41" /><sodipodi:namedview
     pagecolor="#ffffff"
     bordercolor="#666666"
     borderopacity="1"
     objecttolerance="10"
     gridtolerance="10"
     guidetolerance="10"
     inkscape:pageopacity="0"
     inkscape:pageshadow="2"
     inkscape:window-width="1928"
     inkscape:window-height="1036"
     id="namedview39"
     showgrid="false"
     inkscape:zoom="1.84375"
     inkscape:cx="0.7868122"
     inkscape:cy="3.7413155"
     inkscape:window-x="1912"
     inkscape:window-y="0"
     inkscape:window-maximized="0"
     inkscape:current-layer="Layer_1"
     fit-margin-top="0"
     fit-margin-left="0"
     fit-margin-right="0"
     fit-margin-bottom="10" /><g
     id="g8"
     transform="translate(-233.91294,-368.73621)" /><g
     id="g10"
     transform="translate(-233.91294,-368.73621)" /><g
     id="g12"
     transform="translate(-233.91294,-368.73621)" /><g
     id="g14"
     transform="translate(-233.91294,-368.73621)" /><g
     id="g16"
     transform="translate(-233.91294,-368.73621)" /><g
     id="g18"
     transform="translate(-233.91294,-368.73621)" /><g
     id="g20"
     transform="translate(-233.91294,-368.73621)" /><g
     id="g22"
     transform="translate(-233.91294,-368.73621)" /><g
     id="g24"
     transform="translate(-233.91294,-368.73621)" /><g
     id="g26"
     transform="translate(-233.91294,-368.73621)" /><g
     id="g28"
     transform="translate(-233.91294,-368.73621)" /><g
     id="g30"
     transform="translate(-233.91294,-368.73621)" /><g
     id="g32"
     transform="translate(-233.91294,-368.73621)" /><g
     id="g34"
     transform="translate(-233.91294,-368.73621)" /><g
     id="g36"
     transform="translate(-233.91294,-368.73621)" /><path
     style="fill:#008000;stroke:#000000;stroke-width:1px;stroke-linecap:butt;stroke-linejoin:miter;stroke-opacity:1"
     d="m 9.13685,1.58082 1.48676,8.183069 6.41163,6.788227 10.40729,3.34762 -1.11507,-8.183069 -5.11072,-6.137302 -7.43378,-3.6265873 z"
     id="path861"
     inkscape:connector-curvature="0" /><path
     style="fill:#ffcc00;stroke:#000000;stroke-width:1px;stroke-linecap:butt;stroke-linejoin:miter;stroke-opacity:1"
     d="m 26.5133,24.177249 -6.31871,1.301852 -4.36734,4.184524 -1.11507,6.323279 -2.69474,9.019974 -5.66826,6.323281 -3.99565,8.369048 -1.20799,9.298942 3.62396,8.462036 5.76118,5.951322 12.17281,2.975663 12.82327,-1.115874 10.68605,-5.672353 4.92488,-10.507805 -0.65045,-9.856878 -5.66826,-9.949868 -5.76118,-6.41627 -1.02214,-10.786773 -5.48241,-6.881217 z"
     id="path859"
     inkscape:connector-curvature="0" /><path
     style="stroke-width:1"
     d="m 44.42158,47.121795 c -2.92161,-2.871603 -4.53087,-6.625999 -4.53087,-10.571217 0,-6.806192 -5.01487,-12.617293 -11.48137,-13.691594 V 22.58878 c 0,-4.037629 3.23788,-7.322425 7.21811,-7.322425 0.80163,0 1.45164,-0.650479 1.45164,-1.45269 0,-0.802211 -0.65001,-1.452689 -1.45164,-1.452689 -2.72819,0 -5.28008,1.066586 -7.18539,3.003791 -0.0339,0.03446 -0.0654,0.07064 -0.0987,0.105441 C 26.49615,6.646916 18.66144,0 9.30365,0 8.50202,0 7.85201,0.6504784 7.85201,1.4526894 c 0,10.1768836 7.84482,18.5538936 17.80053,19.3955386 -0.0952,0.569383 -0.14648,1.150767 -0.14648,1.740552 v 0.110071 c -3.29493,0.17042 -6.37656,1.501895 -8.78316,3.826232 -2.6761,2.584598 -4.14985,6.041529 -4.14985,9.734717 v 0.07149 c 0,4.08375 -1.6281,7.881865 -4.58449,10.694661 C 2.83698,51.927685 0,58.644894 0,65.940402 c 0,6.913862 2.70506,12.614035 7.82272,16.484845 4.63332,3.504422 10.98795,5.35676 18.37704,5.35676 7.39371,0 13.75965,-1.851823 18.40976,-5.355217 5.14182,-3.874067 7.85972,-9.575097 7.85972,-16.486559 -1.7e-4,-6.932722 -2.93343,-13.79172 -8.04766,-18.81844 z M 10.82468,2.9746443 C 18.73957,3.6991888 25.05959,10.023951 25.78361,17.944392 17.86889,17.219847 11.5487,10.895085 10.82468,2.9746443 Z M 26.19959,84.876632 c -11.26242,0 -23.29631,-4.9746 -23.29631,-18.936568 0,-6.491583 2.5166,-12.461103 7.08585,-16.808884 3.53838,-3.366577 5.4872,-7.912382 5.4872,-12.800229 v -0.07149 c 0,-2.897149 1.15885,-5.612048 3.26272,-7.644064 2.03449,-1.964809 4.68027,-3.033623 7.48812,-3.033623 0.13141,0 0.26316,0.0024 0.39525,0.007 5.71541,0.203339 10.36518,5.120675 10.36518,10.961436 0,4.731313 1.91765,9.221569 5.39966,12.643867 4.56205,4.483912 7.17853,10.587505 7.17853,16.74579 0,13.96214 -12.07021,18.93674 -23.3662,18.93674 z"
     id="path2"
     inkscape:connector-curvature="0" /></svg>